# xmcd
#
# Track frame offsets:
#	150
#	11181
#	27228
#	39532
#	55893
#	70471
#	81910
#	94412
#	109558
#	122921
#	138058
#	148797
#	163444
#	176970
#	187357
#	196310
#	209234
#	224688
#	233179
#	241393
#	257424
#	269585
#	283285
#	295341
#	312954
#
# Disc length: 4640 seconds
#
# Revision: 2
# Processed by: cddbd v1.5.2PL0 Copyright (c) Steve Scherf et al.
# Submitted via: audiograbber 1.83.01
#
DISCID=a3121e19
DTITLE=Denahy, Peter - Peter Denahy
DYEAR=2007
DGENRE=Country
TTITLE0=Denahy, Peter - Wind Through The Brigalow
TTITLE1=Denahy, Peter - One Quiet Day
TTITLE2=Denhy, Peter - Frankie
TTITLE3=Denahy, Peter - Clare
TTITLE4=Denahy, Peter - Grab a Rock
TTITLE5=Denahy, Peter - Peppercorn Tree
TTITLE6=Denahy, Peter - The Kitchen Girl
TTITLE7=Denahy, Peter - What you Know
TTITLE8=Denahy, Peter - The Bloke Who Serves The Beer
TTITLE9=Denahy, Peter - Dream
TTITLE10=Denehy, Peter - Heading Down to Dick's
TTITLE11=Denahy, Peter - Always Here
TTITLE12=Denahy, Peter - The Drop of Water
TTITLE13=Denahy, Peter - Bruce The Spider
TTITLE14=Denahy, Peter - The Dung Beetle
TTITLE15=Denahy, Peter - It's Great To Be Smelly
TTITLE16=Denahy, Peter - The Self Esteem Song
TTITLE17=Denahy, Peter - The Petrol Head Fly
TTITLE18=Denahy, Peter - Billy The Baked Bean Man
TTITLE19=Denahy, Peter - Help Me Burn a Dead Cow, Missus
TTITLE20=Denahy, Peter - Jock The Song
TTITLE21=Denehy, Peter - Oscar The Yodelling Bull
TTITLE22=Denahy, Peter - The Old Retired Nappy
TTITLE23=Denahy, Peter - The Cantankerous Gramaphone
TTITLE24=Denahy, Peter - Oliver Beer And The Peanuts
EXTD=
EXTT0=
EXTT1=
EXTT2=
EXTT3=
EXTT4=
EXTT5=
EXTT6=
EXTT7=
EXTT8=
EXTT9=
EXTT10=
EXTT11=
EXTT12=
EXTT13=
EXTT14=
EXTT15=
EXTT16=
EXTT17=
EXTT18=
EXTT19=
EXTT20=
EXTT21=
EXTT22=
EXTT23=
EXTT24=
PLAYORDER=
